<?xml version="1.0" encoding="utf-8"?>
<!-- Svg Vector Icons : http://www.onlinewebfonts.com/icon -->
<!DOCTYPE svg PUBLIC "-//W3C//DTD SVG 1.1//EN" "http://www.w3.org/Graphics/SVG/1.1/DTD/svg11.dtd">
<svg version="1.1" xmlns="http://www.w3.org/2000/svg" xmlns:xlink="http://www.w3.org/1999/xlink" x="0px" y="0px" viewBox="0 0 1000 1000" enable-background="new 0 0 1000 1000" xml:space="preserve">
<metadata> Svg Vector Icons : http://www.onlinewebfonts.com/icon </metadata>
<g><g><path d="M689,12.9c-166.2,0-301,106.6-301,238.2c0,78.4,48,147.7,121.8,191.1c-7.2,39.6-30.2,86.2-62.3,118.3c78.5-5.9,147.5-28.4,192.8-74.6c15.9,2.1,32.1,3.4,48.7,3.4c166.2,0,301-106.6,301-238.2C990,119.6,855.3,12.9,689,12.9z M548,298.2c-26,0-47-21.1-47-47c0-26,21.1-47,47-47s47,21.1,47,47C595,277.1,573.9,298.2,548,298.2z M689,298.2c-26,0-47-21.1-47-47c0-26,21.1-47,47-47c26,0,47,21.1,47,47C736.1,277.1,715,298.2,689,298.2z M830.1,298.2c-26,0-47-21.1-47-47c0-26,21.1-47,47-47c26,0,47,21.1,47,47C877.1,277.1,856.1,298.2,830.1,298.2z M630.6,799.2c-95.4-76.7-122.1-39-165.4,4.3c-30.2,30.2-106.7-32.9-172.8-99c-66.1-66.1-129.2-142.5-99-172.8c43.3-43.3,81-70,4.3-165.4C121.1,271,70,344.3,28,386.2c-48.4,48.4-2.6,228.8,175.7,407.1C382.1,971.6,562.4,1017.4,610.8,969C652.8,927.1,726,876,630.6,799.2z M129.1,418.2c-1.3,0.5-3.2,1.3-5.6,2.3c-4.5,1.7-10,3.7-16,6.3c-2.8,1.4-6,2.8-8.9,4.6c-3,1.8-6,3.8-8.7,6.3c-2.9,2.4-5.2,5.4-7.8,8.6c-2,3.5-4.5,7.1-5.9,11.4c-2,4.1-2.7,8.8-3.9,13.4c-0.9,4.7-1.1,9.6-1.7,14.3c-0.1,9.6,0.3,18.8,1.6,26.7c0.6,8,2.7,14.8,3.5,19.4c1,4.7,1.5,7.4,1.5,7.4s-1.4-2.3-4-6.4c-2.4-4.2-6.5-9.6-10-17.3c-4.1-7.5-7.9-16.7-11.6-27c-1.3-5.3-3.1-10.9-4-16.8c-0.7-6-1.8-12.2-1.4-18.7c-0.2-6.5,1.1-13.1,2.3-19.7c1.9-6.4,4-13,7.1-18.8c2.9-5.9,6.5-11.3,10.1-16c3.6-4.8,7.4-8.8,10.9-12.4c7-6.9,13.2-12,16.7-15.1c2-1.7,2.9-2.6,3.8-3.4c0.8-0.8,1.2-1.2,1.2-1.2l32.7,51.2C131.2,417.3,130.5,417.6,129.1,418.2z M620.2,904.4c-3.2,4-8.2,10.2-15.1,17.2c-3.6,3.5-7.4,7.2-12.1,10.7c-4.4,3.7-9.7,7-15.1,10.1c-5.6,3.1-11.5,5.7-17.8,7.7c-6.2,1.9-12.7,3.4-19,3.9l-9.4,0.7l-9.1-0.5c-6-0.1-11.6-1.7-17-2.6c-5.4-1-10.3-3-14.9-4.3c-4.7-1.3-8.9-3.6-12.7-5.1c-7.8-3.1-13.5-6.7-17.7-8.9c-4.2-2.3-6.5-3.6-6.5-3.6s2.7,0.4,7.4,1.1c4.7,0.6,11.5,2.1,19.4,2.3c4,0.1,8,0.8,12.6,0.4c4.5-0.3,9.1-0.1,13.8-1c4.6-0.9,9.4-1.2,13.9-2.9l6.7-2l6.2-2.9c16.4-7.9,25.3-21.9,30.4-33.5c2.6-6,4.4-11.3,5.8-15.5c1.5-4.4,2.4-6.9,2.4-6.9l53,29.7C625,898.4,623.3,900.6,620.2,904.4z"/></g><g></g><g></g><g></g><g></g><g></g><g></g><g></g><g></g><g></g><g></g><g></g><g></g><g></g><g></g><g></g></g>
</svg>