<?xml version="1.0" encoding="UTF-8"?><!DOCTYPE svg PUBLIC "-//W3C//DTD SVG 1.1//EN" "http://www.w3.org/Graphics/SVG/1.1/DTD/svg11.dtd"><svg xmlns="http://www.w3.org/2000/svg"><symbol id="icon-facebook" viewBox="0 0 10 19">
    <title>
        facebook
    </title>
    <path d="M9.766.157v2.946H8.014c-.64 0-1.071.134-1.295.402-.223.268-.335.67-.335 1.205v2.11h3.27l-.435 3.303H6.384v8.471H2.97v-8.47H.123V6.82H2.97V4.387c0-1.384.387-2.457 1.161-3.22C4.904.404 5.934.023 7.222.023c1.093 0 1.941.045 2.544.134z" fill-rule="evenodd"/>
</symbol><symbol id="icon-talking" viewBox="0 0 1000 1000">
    <path d="M689 12.9c-166.2 0-301 106.6-301 238.2 0 78.4 48 147.7 121.8 191.1-7.2 39.6-30.2 86.2-62.3 118.3 78.5-5.9 147.5-28.4 192.8-74.6 15.9 2.1 32.1 3.4 48.7 3.4 166.2 0 301-106.6 301-238.2 0-131.5-134.7-238.2-301-238.2zM548 298.2c-26 0-47-21.1-47-47 0-26 21.1-47 47-47s47 21.1 47 47-21.1 47-47 47zm141 0c-26 0-47-21.1-47-47 0-26 21.1-47 47-47 26 0 47 21.1 47 47 .1 25.9-21 47-47 47zm141.1 0c-26 0-47-21.1-47-47 0-26 21.1-47 47-47 26 0 47 21.1 47 47s-21 47-47 47zm-199.5 501c-95.4-76.7-122.1-39-165.4 4.3-30.2 30.2-106.7-32.9-172.8-99-66.1-66.1-129.2-142.5-99-172.8 43.3-43.3 81-70 4.3-165.4C121.1 271 70 344.3 28 386.2c-48.4 48.4-2.6 228.8 175.7 407.1C382.1 971.6 562.4 1017.4 610.8 969c42-41.9 115.2-93 19.8-169.8zm-501.5-381c-1.3.5-3.2 1.3-5.6 2.3-4.5 1.7-10 3.7-16 6.3-2.8 1.4-6 2.8-8.9 4.6-3 1.8-6 3.8-8.7 6.3-2.9 2.4-5.2 5.4-7.8 8.6-2 3.5-4.5 7.1-5.9 11.4-2 4.1-2.7 8.8-3.9 13.4-.9 4.7-1.1 9.6-1.7 14.3-.1 9.6.3 18.8 1.6 26.7.6 8 2.7 14.8 3.5 19.4 1 4.7 1.5 7.4 1.5 7.4s-1.4-2.3-4-6.4c-2.4-4.2-6.5-9.6-10-17.3-4.1-7.5-7.9-16.7-11.6-27-1.3-5.3-3.1-10.9-4-16.8-.7-6-1.8-12.2-1.4-18.7-.2-6.5 1.1-13.1 2.3-19.7 1.9-6.4 4-13 7.1-18.8 2.9-5.9 6.5-11.3 10.1-16 3.6-4.8 7.4-8.8 10.9-12.4 7-6.9 13.2-12 16.7-15.1 2-1.7 2.9-2.6 3.8-3.4l1.2-1.2 32.7 51.2c.2 0-.5.3-1.9.9zm491.1 486.2c-3.2 4-8.2 10.2-15.1 17.2-3.6 3.5-7.4 7.2-12.1 10.7-4.4 3.7-9.7 7-15.1 10.1-5.6 3.1-11.5 5.7-17.8 7.7-6.2 1.9-12.7 3.4-19 3.9l-9.4.7-9.1-.5c-6-.1-11.6-1.7-17-2.6-5.4-1-10.3-3-14.9-4.3-4.7-1.3-8.9-3.6-12.7-5.1-7.8-3.1-13.5-6.7-17.7-8.9-4.2-2.3-6.5-3.6-6.5-3.6s2.7.4 7.4 1.1c4.7.6 11.5 2.1 19.4 2.3 4 .1 8 .8 12.6.4 4.5-.3 9.1-.1 13.8-1 4.6-.9 9.4-1.2 13.9-2.9l6.7-2 6.2-2.9c16.4-7.9 25.3-21.9 30.4-33.5 2.6-6 4.4-11.3 5.8-15.5 1.5-4.4 2.4-6.9 2.4-6.9l53 29.7c-.4-.1-2.1 2.1-5.2 5.9z"/>
</symbol></svg>